{
    "asset" : {
        "generator" : "Khronos glTF Blender I/O v1.8.19",
        "version" : "2.0"
    },
    "scene" : 0,
    "scenes" : [
        {
            "name" : "Scene",
            "nodes" : [
                0
            ]
        }
    ],
    "nodes" : [
        {
            "mesh" : 0,
            "name" : "Cloud",
            "scale" : [
                0.06399510055780411,
                0.06399510055780411,
                0.06399510055780411
            ],
            "translation" : [
                0,
                0.35493505001068115,
                0
            ]
        }
    ],
    "materials" : [
        {
            "alphaMode" : "BLEND",
            "doubleSided" : true,
            "name" : "CarbonCloudImage",
            "pbrMetallicRoughness" : {
                "baseColorFactor" : [
                    1,
                    1,
                    1,
                    0.75
                ],
                "baseColorTexture" : {
                    "index" : 0
                },
                "metallicFactor" : 0
            }
        }
    ],
    "meshes" : [
        {
            "name" : "Object_0",
            "primitives" : [
                {
                    "attributes" : {
                        "POSITION" : 0,
                        "NORMAL" : 1
                    },
                    "indices" : 2,
                    "material" : 0
                }
            ]
        }
    ],
    "textures" : [
        {
            "sampler" : 0,
            "source" : 0
        }
    ],
    "images" : [
        {
            "bufferView" : 3,
            "mimeType" : "image/png",
            "name" : "CarbonTexture_01"
        }
    ],
    "accessors" : [
        {
            "bufferView" : 0,
            "componentType" : 5126,
            "count" : 60570,
            "max" : [
                11.605712890625,
                14.910921096801758,
                9.162696838378906
            ],
            "min" : [
                -15.872377395629883,
                -5.109980583190918,
                -10.462736129760742
            ],
            "type" : "VEC3"
        },
        {
            "bufferView" : 1,
            "componentType" : 5126,
            "count" : 60570,
            "type" : "VEC3"
        },
        {
            "bufferView" : 2,
            "componentType" : 5123,
            "count" : 242709,
            "type" : "SCALAR"
        }
    ],
    "bufferViews" : [
        {
            "buffer" : 0,
            "byteLength" : 726840,
            "byteOffset" : 0
        },
        {
            "buffer" : 0,
            "byteLength" : 726840,
            "byteOffset" : 726840
        },
        {
            "buffer" : 0,
            "byteLength" : 485418,
            "byteOffset" : 1453680
        },
        {
            "buffer" : 0,
            "byteLength" : 169807,
            "byteOffset" : 1939100
        }
    ],
    "samplers" : [
        {
            "magFilter" : 9729,
            "minFilter" : 9987
        }
    ],
    "buffers" : [
        {
            "byteLength" : 2108908,
            "uri" : "data:application/octet-stream;base64,"
        }
    ]
}
